<?xml version="1.0" standalone="no"?>
<!DOCTYPE svg PUBLIC "-//W3C//DTD SVG 20010904//EN"
 "http://www.w3.org/TR/2001/REC-SVG-20010904/DTD/svg10.dtd">
<svg version="1.0" xmlns="http://www.w3.org/2000/svg"
 width="109" height="57" viewBox="0 0 500.000000 500.000000"
 preserveAspectRatio="xMidYMid meet">

<g transform="translate(0.000000,500.000000) scale(0.100000,-0.100000)"
fill="#000000" stroke="none">
<path d="M2535 3844 c-38 -7 -135 -16 -215 -19 -178 -8 -223 -17 -325 -66 -80
-38 -181 -106 -172 -115 3 -3 58 2 123 10 65 9 124 16 131 16 10 0 13 -92 13
-465 0 -256 2 -465 5 -465 2 0 35 17 71 37 37 20 95 44 128 53 l61 17 7 244
c4 134 11 330 14 436 l6 192 92 50 c96 53 158 92 141 90 -5 -1 -41 -8 -80 -15z"/>
<path d="M2670 2769 c-25 -5 -114 -13 -198 -18 -151 -8 -153 -8 -235 -49 -45
-22 -98 -54 -117 -70 l-34 -29 64 8 c36 4 84 11 108 13 l42 6 0 -195 0 -195
114 0 113 0 7 213 c5 146 11 214 19 220 7 4 50 30 97 57 47 27 81 49 75 49 -5
-1 -30 -5 -55 -10z"/>
<path d="M3580 2769 c-25 -5 -114 -13 -197 -18 -152 -9 -153 -9 -235 -50 -46
-23 -96 -53 -113 -66 l-30 -25 25 0 c14 0 65 5 113 11 49 6 91 9 93 6 17 -17
-115 -211 -220 -324 l-58 -63 54 0 54 0 96 108 c86 96 138 160 220 272 17 23
42 41 74 53 47 16 200 107 179 106 -5 -1 -30 -5 -55 -10z"/>
<path d="M2133 2513 l-43 -4 0 -135 0 -134 55 0 55 0 0 140 c0 106 -3 140 -12
138 -7 -1 -32 -3 -55 -5z"/>
<path d="M1240 2160 c-10 -6 -11 -10 -2 -10 15 0 17 -156 2 -196 -15 -38 -5
-42 14 -5 10 18 16 55 16 93 0 35 4 78 9 96 8 27 7 32 -7 32 -9 0 -24 -5 -32
-10z"/>
<path d="M1405 2161 l-50 -6 0 -98 0 -97 45 2 c37 1 39 2 13 5 -32 4 -33 6
-33 49 0 42 1 44 29 44 17 0 33 5 36 10 4 6 -8 10 -29 10 -34 0 -36 2 -36 35
0 34 1 35 39 35 22 0 43 5 46 10 3 6 3 9 -2 8 -4 -1 -30 -4 -58 -7z"/>
<path d="M1667 2164 c-3 -3 -1 -14 5 -23 7 -11 8 -39 3 -76 l-7 -58 -48 48
c-27 27 -54 61 -61 77 -19 46 -29 32 -29 -41 0 -38 -3 -83 -6 -100 -5 -26 -3
-31 12 -31 11 0 15 4 9 8 -6 4 -8 33 -5 68 l5 61 62 -68 c43 -47 65 -65 70
-56 13 20 20 197 7 197 -6 0 -13 -3 -17 -6z"/>
<path d="M1760 2160 c-11 -7 -12 -10 -2 -10 10 0 13 -21 10 -95 -3 -81 -1 -95
13 -95 11 0 15 8 12 28 -2 15 0 62 5 105 7 67 6 77 -7 77 -9 0 -23 -5 -31 -10z"/>
<path d="M1935 2161 c-18 -7 -17 -8 7 -13 32 -6 58 6 33 16 -9 3 -17 6 -18 5
-1 0 -11 -4 -22 -8z"/>
<path d="M2050 2168 c-1 -2 -2 -49 -3 -106 -2 -90 0 -102 15 -102 9 0 20 5 23
10 3 6 3 10 -2 10 -4 0 -7 20 -5 45 l4 45 50 0 50 0 -4 -55 c-2 -46 0 -55 14
-55 18 0 33 16 20 22 -4 1 -5 45 -2 96 5 88 4 93 -15 90 -17 -3 -19 -9 -17
-46 l4 -43 -52 3 -52 3 4 43 c3 35 0 42 -14 42 -10 0 -18 -1 -18 -2z"/>
<path d="M2380 2160 c-11 -7 -12 -10 -2 -10 11 0 13 -20 10 -95 -2 -79 -1 -95
12 -95 12 0 14 15 12 91 -2 60 1 95 8 105 10 11 9 14 -6 14 -11 0 -26 -5 -34
-10z"/>
<path d="M2481 2161 c-10 -7 -11 -9 0 -13 8 -3 -1 -18 -25 -46 l-38 -42 30
-38 c36 -45 74 -67 99 -58 15 6 13 9 -13 21 -17 7 -45 30 -62 51 l-31 38 36
40 c20 23 41 44 47 48 16 11 -26 10 -43 -1z"/>
<path d="M2675 2160 c-18 -8 -17 -9 7 -9 15 -1 39 -11 54 -24 21 -18 27 -32
27 -65 0 -53 -24 -82 -67 -82 -73 1 -110 89 -63 150 6 9 0 3 -15 -12 -32 -32
-36 -73 -13 -117 44 -86 183 -28 185 76 0 57 -65 104 -115 83z"/>
<path d="M2827 2158 c-6 -4 7 -8 29 -10 l39 -3 3 -64 c2 -35 -1 -77 -7 -92 -9
-27 -8 -29 14 -29 13 0 27 5 30 10 3 6 0 10 -7 10 -10 0 -12 20 -10 85 l3 85
40 0 c21 0 39 4 39 10 0 11 -154 9 -173 -2z"/>
<path d="M3045 2160 c-3 -5 -2 -10 4 -10 13 0 13 -148 0 -172 -8 -15 -6 -18
15 -18 14 0 28 5 31 10 3 6 0 10 -7 10 -9 0 -12 13 -10 45 l4 45 55 0 55 0 -4
-55 c-4 -48 -2 -55 13 -55 10 0 21 5 24 10 3 6 0 10 -7 10 -10 0 -12 21 -8 95
4 85 3 95 -12 95 -9 0 -20 -4 -23 -10 -3 -5 -1 -10 5 -10 7 0 10 -13 8 -32 -3
-33 -3 -33 -56 -33 l-54 0 4 43 c3 34 0 42 -14 42 -9 0 -20 -4 -23 -10z"/>
<path d="M3500 2160 c-12 -8 -12 -10 -1 -10 11 0 13 -18 8 -95 -6 -98 -2 -107
33 -85 10 6 11 10 3 10 -10 0 -13 24 -13 85 0 82 1 85 23 85 50 0 66 -60 22
-82 l-25 -14 49 -48 c32 -32 55 -47 65 -43 12 5 5 16 -32 51 l-47 45 23 23
c27 30 28 42 2 68 -22 22 -83 27 -110 10z"/>
<path d="M3720 2160 c-10 -6 -11 -10 -2 -10 15 0 17 -142 2 -171 -9 -17 -7
-19 17 -19 15 0 23 4 18 8 -6 4 -8 44 -5 105 5 98 2 107 -30 87z"/>
<path d="M3353 2147 c-5 -6 -22 -43 -38 -82 -15 -38 -35 -78 -43 -87 -14 -16
-13 -18 7 -18 12 0 20 4 16 9 -7 13 15 61 29 61 6 0 21 3 33 6 18 5 23 0 34
-35 12 -40 39 -56 54 -31 3 6 0 10 -7 10 -8 0 -22 33 -37 85 -24 89 -33 103
-48 82z m16 -79 c1 -12 -6 -18 -19 -18 -24 0 -23 -2 -8 40 10 30 12 32 19 14
4 -10 8 -27 8 -36z"/>
<path d="M1887 2132 c-27 -29 -20 -49 25 -79 24 -16 44 -36 46 -45 5 -25 -35
-43 -64 -29 -16 7 -25 7 -30 0 -17 -28 47 -29 84 -2 42 31 40 58 -8 88 -47 29
-58 49 -40 70 18 21 6 19 -13 -3z"/>
<path d="M2080 1861 c0 -45 -35 -257 -54 -332 -66 -252 -216 -486 -378 -590
-26 -17 -48 -33 -48 -35 0 -2 35 13 78 35 200 101 368 259 486 455 l36 60 0
208 0 208 -60 0 c-33 0 -60 -4 -60 -9z"/>
<path d="M2300 1548 c-1 -428 -15 -509 -110 -612 l-43 -46 114 -2 c174 -4 227
-1 271 17 39 15 221 136 215 142 -2 1 -35 -4 -73 -12 -38 -8 -113 -15 -167
-15 l-98 0 26 34 c58 77 68 121 76 371 4 127 8 278 8 338 l1 107 -110 0 -110
0 0 -322z"/>
<path d="M2572 1842 l-20 -27 77 -107 c303 -423 680 -759 914 -817 45 -11 53
-10 103 13 62 29 149 94 213 160 l44 45 -49 -15 c-60 -19 -167 -13 -239 13
-214 78 -468 308 -727 662 l-73 101 -112 0 c-110 0 -112 0 -131 -28z"/>
</g>
</svg>
