<?xml version="1.0" standalone="no"?>
<!DOCTYPE svg PUBLIC "-//W3C//DTD SVG 20010904//EN"
 "http://www.w3.org/TR/2001/REC-SVG-20010904/DTD/svg10.dtd">
<svg version="1.0" xmlns="http://www.w3.org/2000/svg"
 width="1080.000000pt" height="1080.000000pt" viewBox="0 0 1080.000000 1080.000000"
 preserveAspectRatio="xMidYMid meet">

<g transform="translate(0.000000,1080.000000) scale(0.100000,-0.100000)"
fill="#000000" stroke="none">
<path d="M5320 7679 c-25 -16 -52 -32 -60 -36 -17 -7 -367 -208 -390 -223 -8
-6 -26 -15 -40 -22 -14 -7 -32 -17 -40 -24 -8 -6 -35 -23 -60 -36 -25 -14 -61
-35 -80 -46 -19 -12 -48 -28 -65 -37 -16 -8 -43 -24 -60 -35 -16 -11 -40 -24
-52 -29 -12 -6 -41 -22 -65 -37 -24 -16 -68 -41 -98 -57 -30 -16 -57 -32 -60
-36 -3 -3 -31 -19 -62 -36 -32 -16 -58 -33 -58 -37 0 -5 -5 -8 -11 -8 -6 0
-53 -25 -104 -55 -52 -30 -96 -55 -99 -55 -3 0 -25 -13 -49 -30 -24 -16 -55
-34 -68 -40 -13 -6 -37 -19 -54 -30 -16 -11 -43 -26 -60 -34 -16 -9 -37 -20
-45 -25 -8 -6 -49 -29 -90 -53 -41 -23 -77 -45 -80 -49 -3 -3 -14 -9 -26 -13
-11 -3 -30 -17 -42 -29 l-21 -23 -1 -1152 c-1 -795 2 -1157 9 -1166 6 -7 34
-25 63 -40 29 -15 67 -36 83 -47 17 -10 41 -24 55 -31 14 -7 27 -16 30 -20 3
-4 17 -12 30 -18 14 -6 43 -21 65 -34 48 -29 75 -44 140 -81 28 -15 57 -33 65
-39 8 -7 26 -18 40 -24 14 -7 41 -22 60 -33 19 -12 58 -34 85 -48 28 -15 73
-42 100 -59 28 -17 56 -32 63 -32 6 0 12 -4 12 -8 0 -4 28 -23 63 -41 34 -18
76 -41 92 -52 17 -10 41 -24 55 -31 14 -7 27 -16 30 -19 3 -4 32 -21 65 -39
33 -17 74 -40 90 -51 17 -10 41 -24 55 -31 14 -7 27 -16 30 -20 3 -4 17 -12
30 -18 14 -6 43 -21 65 -35 22 -13 49 -29 60 -35 11 -6 38 -22 60 -35 22 -14
52 -30 68 -36 15 -6 27 -15 27 -20 0 -5 6 -9 13 -9 7 0 35 -15 62 -32 28 -18
61 -39 75 -45 14 -7 32 -17 40 -22 114 -71 153 -84 177 -60 13 13 47 33 83 49
13 6 27 14 30 18 3 4 16 13 30 20 14 6 32 16 40 21 19 13 361 210 420 243 25
14 61 35 80 47 19 11 46 26 60 33 14 7 27 15 30 19 5 6 19 14 95 53 17 9 44
25 60 35 17 11 58 34 93 52 34 18 62 37 62 41 0 4 6 8 13 8 6 0 35 15 62 32
28 17 75 45 105 61 30 16 57 32 60 36 3 3 28 17 55 31 28 14 52 28 55 31 5 5
129 77 160 92 8 5 33 19 55 32 22 14 51 30 65 37 14 7 27 15 30 19 3 3 12 8
20 12 8 4 33 18 55 31 22 14 58 34 81 45 22 12 50 30 62 41 l22 21 0 1153 0
1153 -22 21 c-13 11 -34 26 -48 31 -14 6 -38 20 -55 31 -16 11 -43 27 -60 35
-16 9 -43 24 -60 35 -16 11 -43 26 -60 35 -16 9 -39 21 -50 28 -11 6 -49 29
-85 50 -36 20 -72 42 -80 47 -46 28 -209 120 -214 120 -3 0 -25 13 -49 30 -24
16 -55 34 -68 40 -13 6 -37 19 -54 30 -16 11 -43 27 -60 35 -16 9 -46 25 -65
37 -19 11 -55 32 -80 46 -74 41 -404 232 -420 242 -8 6 -26 16 -40 22 -14 7
-27 16 -30 20 -3 4 -17 12 -30 18 -14 6 -42 20 -62 33 -21 12 -61 35 -90 51
-29 15 -72 41 -95 56 -22 16 -50 31 -61 34 -11 4 -26 13 -32 21 -20 24 -80 17
-130 -16z m621 -615 c113 -52 119 -61 119 -165 0 -102 -2 -105 -99 -156 l-60
-32 -66 34 c-104 52 -105 54 -105 155 0 98 -2 95 89 147 64 37 76 39 122 17z
m-999 -25 c34 -24 37 -24 64 2 22 20 25 21 47 6 17 -11 27 -29 31 -59 4 -24
10 -49 15 -56 15 -25 40 0 52 53 8 37 18 56 33 63 30 13 64 -5 71 -39 3 -16 8
-42 11 -59 11 -56 52 -29 61 40 7 49 43 81 68 60 8 -7 15 -22 15 -34 0 -26
-45 -176 -71 -233 -16 -37 -23 -43 -49 -43 -38 0 -56 28 -65 103 -11 88 -25
85 -41 -8 -11 -67 -30 -95 -64 -95 -34 0 -53 24 -69 85 -37 141 -47 175 -56
177 -14 4 -19 -158 -6 -194 16 -45 -2 -65 -58 -66 -25 0 -69 -4 -96 -7 -42 -6
-55 -3 -77 15 -50 39 -46 129 7 164 12 8 49 16 81 18 61 3 75 15 48 42 -13 13
-31 16 -83 14 -61 -3 -66 -1 -69 19 -8 55 135 78 200 32z m676 5 c25 -16 30
-52 7 -60 -8 -3 -29 -1 -48 5 -43 15 -67 5 -67 -25 0 -20 6 -25 41 -30 56 -9
109 -60 109 -104 0 -24 -9 -41 -36 -66 -33 -31 -41 -34 -99 -34 -53 0 -68 4
-85 22 -43 46 -19 66 57 48 46 -11 56 -11 67 1 24 24 3 56 -41 64 -53 9 -81
35 -92 86 -15 65 -14 79 8 79 11 0 23 4 26 10 18 29 108 32 153 4z m-44 -385
c8 -12 19 -18 25 -14 6 3 19 4 29 1 15 -5 17 -23 20 -134 3 -107 1 -131 -12
-141 -21 -17 -25 -6 -28 78 -2 48 -7 67 -20 75 -34 21 -52 -4 -58 -80 -5 -62
-7 -69 -27 -72 -19 -3 -23 2 -24 25 -2 65 -8 149 -10 158 -6 26 16 87 38 105
33 25 48 25 67 -1z m490 -5 c14 -5 16 -27 16 -140 0 -151 1 -149 -84 -160 -38
-6 -50 -3 -75 17 -16 13 -30 32 -30 41 -1 9 -6 28 -12 42 -10 22 -14 23 -26
10 -8 -8 -33 -14 -58 -14 -24 0 -47 -5 -50 -10 -13 -21 17 -40 62 -40 37 0 44
-3 39 -16 -3 -9 -6 -20 -6 -25 0 -5 -21 -9 -47 -9 -41 0 -53 5 -85 36 -33 30
-38 41 -38 80 0 38 5 49 36 79 28 28 44 35 74 35 34 0 70 -19 70 -38 0 -4 4
-13 9 -21 7 -11 16 -6 41 23 28 31 38 36 76 36 39 0 44 3 50 28 12 57 12 56
38 46z m-640 -81 c7 -92 8 -161 0 -189 -5 -19 -9 -20 -40 -10 -32 10 -46 26
-23 26 6 0 9 26 8 71 -2 61 0 73 17 82 10 5 21 11 23 13 2 2 -4 15 -13 29 -19
29 -15 55 7 55 10 0 16 -21 21 -77z m-90 -1 c19 -9 18 -11 -8 -36 -22 -19 -28
-35 -28 -63 0 -60 1 -61 23 -68 27 -9 22 -49 -8 -53 -39 -6 -63 34 -63 105 0
52 -3 64 -20 73 -15 8 -27 8 -48 -2 -23 -11 -27 -20 -30 -63 -4 -76 -10 -95
-32 -95 -24 0 -35 18 -32 51 3 28 -22 58 -33 39 -3 -5 -28 -10 -55 -10 -27 0
-52 -5 -56 -12 -11 -17 26 -38 69 -38 34 0 38 -2 35 -22 -3 -20 -10 -23 -49
-26 -62 -4 -105 30 -114 91 -12 80 30 137 100 137 36 0 47 -5 63 -27 l20 -28
26 24 c19 18 38 25 78 26 29 2 58 3 64 4 6 0 16 13 23 28 l12 27 22 -26 c12
-14 31 -30 41 -36z m-466 -19 c3 -19 -1 -23 -22 -23 -13 0 -36 -4 -51 -10 -24
-9 -26 -14 -23 -57 l3 -48 51 -10 c48 -9 51 -12 43 -32 -7 -18 -16 -23 -44
-23 -48 0 -80 23 -99 71 -33 81 19 163 98 157 34 -2 42 -7 44 -25z m1735 -399
c3 -4 2 -15 -4 -25 -9 -18 -48 -19 -1209 -19 l-1200 0 0 25 0 25 1203 0 c662
0 1207 -3 1210 -6z m-942 -245 c15 -15 19 -27 14 -42 -4 -12 -6 -90 -5 -173
l2 -151 -36 -7 c-20 -4 -44 -2 -56 4 -18 10 -20 21 -20 125 0 65 4 116 10 120
14 9 12 48 -4 70 -38 53 47 102 95 54z m-676 0 c4 -6 8 -71 10 -145 2 -114 5
-137 20 -154 26 -29 35 -10 35 80 0 112 4 120 55 120 52 0 55 -6 55 -105 0
-67 11 -98 27 -81 4 3 6 38 5 78 -3 86 11 108 69 108 21 0 41 -4 44 -10 14
-23 45 -9 62 27 12 24 29 41 47 48 24 8 31 6 47 -15 22 -30 26 -33 63 -63 34
-27 29 -63 -9 -73 -34 -8 -43 -24 -38 -60 4 -23 13 -35 36 -45 74 -32 27 -97
-61 -85 -67 9 -82 28 -89 115 -10 121 -43 106 -43 -21 0 -42 -4 -79 -10 -83
-5 -3 -54 -8 -108 -10 -76 -4 -103 -1 -118 10 -24 18 -43 19 -63 1 -31 -28
-84 -24 -116 9 -24 24 -25 28 -25 183 0 109 4 162 12 170 15 15 84 16 93 1z
m-510 -10 c48 -12 61 -32 51 -75 -6 -24 -9 -25 -69 -18 l-62 7 24 -27 c14 -14
41 -31 61 -37 21 -6 44 -22 52 -37 l16 -26 27 45 c40 66 70 84 135 83 59 -1
102 -21 121 -56 6 -11 11 -52 11 -90 0 -63 -3 -73 -28 -99 -56 -59 -180 -52
-217 11 -23 38 -47 38 -69 0 -42 -74 -248 -72 -248 3 0 42 13 50 71 42 65 -9
64 -9 64 11 0 9 -23 27 -55 42 -69 34 -98 82 -81 135 15 43 46 73 91 85 47 14
54 14 105 1z m1450 -105 c41 -27 59 -65 59 -124 0 -89 -50 -140 -137 -140 -91
0 -137 50 -137 147 0 51 4 66 26 92 42 51 132 63 189 25z m338 -5 c9 -12 17
-35 18 -53 0 -26 2 -28 9 -11 13 33 73 82 106 88 52 10 100 -2 115 -29 11 -21
10 -28 -10 -55 l-22 -30 25 -20 c34 -26 34 -73 2 -113 -20 -25 -31 -30 -83
-34 -47 -3 -68 0 -100 17 -34 17 -42 18 -47 6 -7 -20 -47 -28 -78 -16 -26 10
-27 14 -30 93 -2 66 -6 83 -18 83 -12 0 -16 -15 -18 -65 -1 -36 -4 -75 -7 -86
-6 -25 -47 -37 -82 -23 -22 8 -23 13 -23 126 0 65 4 124 9 132 6 10 21 12 52
7 24 -3 58 -2 74 3 41 14 87 5 108 -20z m-737 -357 c28 -19 32 -46 13 -83 -17
-33 -17 -38 -3 -50 21 -17 43 -3 69 44 11 20 27 38 35 40 33 7 59 -6 69 -34 7
-20 17 -29 31 -29 15 0 26 -11 36 -36 l15 -36 34 35 c77 79 189 46 209 -61 3
-19 1 -43 -5 -54 -9 -17 -18 -20 -53 -15 -22 3 -49 2 -59 -2 -17 -6 -17 -8 -3
-20 12 -10 25 -11 55 -3 39 9 40 9 51 -21 13 -39 -1 -55 -59 -68 -54 -12 -115
5 -143 40 -19 25 -20 25 -33 7 -8 -10 -16 -23 -17 -28 -6 -18 -93 -21 -125 -5
-33 17 -43 46 -43 122 0 35 -5 46 -25 59 l-25 16 0 -93 c0 -101 -7 -117 -51
-117 -58 0 -59 2 -59 135 0 68 4 126 9 130 6 3 4 19 -5 40 -18 45 -18 51 6 75
20 20 56 26 76 12z m-291 -26 c8 -13 13 -31 9 -40 -10 -27 13 -44 61 -44 76 2
85 -14 85 -152 0 -126 -2 -130 -55 -130 -38 0 -48 24 -46 104 2 75 -4 91 -33
80 -12 -5 -15 -21 -14 -79 2 -49 -2 -78 -11 -89 -18 -22 -73 -20 -102 3 -20
16 -21 22 -13 52 6 19 6 63 2 103 -4 38 -4 74 -1 79 3 5 6 34 7 64 2 60 12 73
63 73 23 0 37 -7 48 -24z m-699 -14 c12 -7 65 -147 91 -242 8 -30 17 -57 20
-60 13 -14 23 35 23 116 0 56 4 94 12 102 15 15 50 15 83 0 21 -9 31 -9 46 0
31 19 49 14 60 -18 6 -16 14 -30 17 -30 4 1 23 14 42 30 28 25 43 30 86 30 64
0 94 -25 76 -65 -9 -19 -19 -25 -45 -25 -40 0 -57 -15 -57 -50 0 -35 32 -64
60 -55 24 8 50 -10 50 -33 0 -32 -31 -52 -82 -52 -81 0 -138 41 -138 99 0 59
-10 81 -35 81 -41 0 -55 -25 -55 -96 0 -59 -2 -65 -25 -76 -18 -8 -38 -8 -69
-1 -25 5 -51 6 -58 2 -32 -21 -108 -3 -108 26 0 21 -37 37 -68 30 -16 -3 -34
-18 -44 -35 -14 -25 -23 -30 -56 -30 -65 0 -67 13 -21 141 22 63 45 130 51
149 19 66 24 70 81 70 29 0 57 -4 63 -8z m1910 -58 c52 -53 55 -81 11 -102
-25 -12 -28 -18 -25 -55 2 -34 8 -44 31 -55 18 -9 27 -21 27 -36 0 -55 -115
-62 -157 -9 -18 22 -23 41 -23 84 0 34 -5 60 -12 66 -7 5 -35 8 -61 5 -57 -5
-86 -36 -67 -71 14 -26 44 -43 64 -35 19 7 46 -12 46 -34 0 -32 -31 -52 -82
-52 -84 0 -132 40 -143 118 -9 67 11 108 67 145 34 21 111 22 143 1 23 -15 24
-14 41 13 50 80 76 83 140 17z m140 -551 c15 -16 15 -17 -2 -24 -31 -12 -2372
-11 -2379 1 -4 6 -4 18 -1 26 5 12 160 14 1185 14 1091 0 1181 -2 1197 -17z
m-2157 -267 c18 -22 53 -128 55 -166 1 -28 -3 -36 -20 -38 -11 -2 -28 6 -39
18 -23 25 -30 25 -66 0 -23 -17 -33 -19 -49 -10 -24 13 -25 22 -6 58 7 15 16
42 19 60 14 72 74 117 106 78z m279 -17 c2 -14 -4 -31 -12 -38 -14 -12 -13
-16 9 -33 31 -24 33 -68 5 -93 -28 -25 -112 -32 -129 -11 -17 20 -7 46 18 46
19 0 19 2 -4 26 -18 19 -25 38 -25 65 0 50 28 71 90 67 40 -3 45 -6 48 -29z
m240 0 c2 -14 -4 -31 -12 -38 -14 -12 -13 -16 9 -33 30 -23 32 -57 7 -88 -25
-31 -110 -40 -136 -15 -21 22 -5 45 33 46 l26 1 -25 9 c-30 11 -50 55 -43 93
8 38 40 57 93 54 40 -3 45 -6 48 -29z m276 3 c56 -59 39 -160 -31 -183 -42
-14 -98 -4 -124 22 -14 14 -19 33 -19 76 0 48 4 61 27 85 22 23 35 28 73 28
38 0 51 -5 74 -28z m274 6 c8 -31 8 -31 -35 -43 -28 -8 -39 -17 -41 -33 -5
-30 14 -52 44 -52 30 0 51 -35 33 -56 -15 -18 -72 -18 -107 0 -62 32 -73 121
-23 175 24 26 36 31 76 31 40 0 48 -3 53 -22z m148 14 c14 -9 17 -26 15 -119
-1 -60 -4 -74 -20 -82 -13 -7 -24 -6 -36 3 -16 11 -19 28 -19 100 0 65 4 90
15 97 17 11 30 11 45 1z m240 -23 c18 -36 53 -138 54 -156 0 -7 -8 -17 -19
-22 -14 -8 -26 -5 -52 15 -33 24 -34 24 -49 6 -21 -25 -56 -33 -71 -15 -10 11
-8 25 9 66 12 29 22 60 22 68 0 27 40 69 65 69 17 0 29 -9 41 -31z m288 25
c27 -10 19 -44 -14 -55 -28 -10 -29 -14 -32 -77 l-3 -67 -30 0 c-30 0 -30 1
-35 65 -5 59 -8 66 -32 78 -30 14 -35 31 -16 50 12 12 134 17 162 6z m229 -34
c-1 -19 -3 -54 -6 -78 -2 -28 1 -46 10 -54 11 -9 11 -14 -2 -28 -12 -13 -27
-16 -68 -12 -28 2 -56 8 -61 13 -11 10 -14 146 -4 177 7 21 13 23 70 20 l63
-3 -2 -35z"/>
<path d="M4812 6858 c-28 -28 -7 -68 33 -61 29 6 67 41 62 56 -5 17 -79 21
-95 5z"/>
<path d="M5540 6615 c-17 -21 -4 -35 35 -35 37 0 48 10 39 34 -8 20 -57 21
-74 1z"/>
<path d="M5754 6515 c-12 -30 16 -45 46 -25 13 9 12 12 -4 25 -25 19 -35 19
-42 0z"/>
<path d="M5946 6508 c-22 -31 -20 -64 4 -88 41 -41 80 -19 80 45 0 23 -5 46
-12 53 -19 19 -55 14 -72 -10z"/>
<path d="M4965 6516 c-15 -11 -17 -18 -9 -26 17 -17 49 -8 49 14 0 25 -16 30
-40 12z"/>
<path d="M4694 5706 c-3 -8 -4 -29 -2 -48 2 -25 8 -33 23 -33 22 0 31 30 21
71 -7 26 -33 32 -42 10z"/>
<path d="M5820 5705 c-13 -15 -5 -70 11 -81 18 -10 39 18 39 51 0 21 -6 35
-16 39 -21 8 -20 8 -34 -9z"/>
<path d="M6292 5648 c3 -36 6 -43 23 -40 11 1 33 4 49 5 33 3 49 27 18 27 -12
0 -29 11 -40 25 -11 14 -27 25 -37 25 -13 0 -16 -8 -13 -42z"/>
<path d="M5733 5230 c-31 -13 -33 -84 -4 -100 42 -22 51 -14 51 50 0 63 -4 67
-47 50z"/>
<path d="M4465 5230 c-7 -23 2 -43 16 -35 12 8 12 42 0 50 -5 3 -12 -4 -16
-15z"/>
<path d="M5122 4423 c2 -30 8 -39 24 -41 11 -2 27 4 34 13 20 24 -2 65 -35 65
-24 0 -26 -3 -23 -37z"/>
<path d="M6358 4373 c7 -3 16 -2 19 1 4 3 -2 6 -13 5 -11 0 -14 -3 -6 -6z"/>
</g>
</svg>
